<svg width="64" height="64" viewBox="0 0 64 64" fill="none" xmlns="http://www.w3.org/2000/svg">
<g clip-path="url(#clip0_1177_2196)">
<rect width="64" height="64" rx="32" fill="#E1E4EA"/>
<rect width="64" height="64" fill="#E1E4EA"/>
<g opacity="0.48" filter="url(#filter0_b_1177_2196)">
<path d="M8 28.4572C8 26.6899 9.43268 25.2572 11.2 25.2572H35.1996C36.9669 25.2572 38.3996 26.6899 38.3996 28.4572V84.4574C38.3996 86.2247 36.9669 87.6574 35.1996 87.6574H11.2C9.43268 87.6574 8 86.2247 8 84.4574V28.4572Z" fill="white"/>
</g>
<path d="M14.3999 32.8C14.3999 32.3582 14.7581 32 15.1999 32H19.9998C20.4416 32 20.7998 32.3582 20.7998 32.8V37.6C20.7998 38.0418 20.4416 38.4 19.9998 38.4H15.1999C14.7581 38.4 14.3999 38.0418 14.3999 37.6V32.8Z" fill="#E1E4EA"/>
<path d="M14.3999 44C14.3999 43.5582 14.7581 43.2 15.1999 43.2H19.9998C20.4416 43.2 20.7998 43.5582 20.7998 44V48.8C20.7998 49.2419 20.4416 49.6 19.9998 49.6H15.1999C14.7581 49.6 14.3999 49.2419 14.3999 48.8V44Z" fill="#E1E4EA"/>
<path d="M14.3999 55.2C14.3999 54.7582 14.7581 54.4 15.1999 54.4H19.9998C20.4416 54.4 20.7998 54.7582 20.7998 55.2V60C20.7998 60.4418 20.4416 60.8 19.9998 60.8H15.1999C14.7581 60.8 14.3999 60.4418 14.3999 60V55.2Z" fill="#E1E4EA"/>
<g filter="url(#filter1_bi_1177_2196)">
<path d="M24 16C24 14.2327 25.4327 12.8 27.2 12.8H51.1996C52.9669 12.8 54.3996 14.2327 54.3996 16V72.0002C54.3996 73.7675 52.9669 75.2001 51.1996 75.2001H27.2C25.4327 75.2001 24 73.7675 24 72.0002V16Z" fill="white" fill-opacity="0.8"/>
</g>
<path d="M30.3999 20.3428C30.3999 19.901 30.7581 19.5428 31.1999 19.5428H35.9998C36.4416 19.5428 36.7998 19.901 36.7998 20.3428V25.1428C36.7998 25.5846 36.4416 25.9428 35.9998 25.9428H31.1999C30.7581 25.9428 30.3999 25.5846 30.3999 25.1428V20.3428Z" fill="#E1E4EA"/>
<path d="M30.3999 31.543C30.3999 31.1012 30.7581 30.743 31.1999 30.743H35.9998C36.4416 30.743 36.7998 31.1012 36.7998 31.543V36.343C36.7998 36.7848 36.4416 37.143 35.9998 37.143H31.1999C30.7581 37.143 30.3999 36.7848 30.3999 36.343V31.543Z" fill="#E1E4EA"/>
<path d="M30.3999 42.743C30.3999 42.3011 30.7581 41.943 31.1999 41.943H35.9998C36.4416 41.943 36.7998 42.3011 36.7998 42.743V47.543C36.7998 47.9848 36.4416 48.343 35.9998 48.343H31.1999C30.7581 48.343 30.3999 47.9848 30.3999 47.543V42.743Z" fill="#E1E4EA"/>
<path d="M30.3999 53.943C30.3999 53.5011 30.7581 53.143 31.1999 53.143H35.9998C36.4416 53.143 36.7998 53.5011 36.7998 53.943V58.743C36.7998 59.1848 36.4416 59.543 35.9998 59.543H31.1999C30.7581 59.543 30.3999 59.1848 30.3999 58.743V53.943Z" fill="#E1E4EA"/>
<path d="M41.6001 20.3428C41.6001 19.901 41.9583 19.5428 42.4001 19.5428H47.2C47.6418 19.5428 48 19.901 48 20.3428V25.1428C48 25.5846 47.6418 25.9428 47.2 25.9428H42.4001C41.9583 25.9428 41.6001 25.5846 41.6001 25.1428V20.3428Z" fill="#E1E4EA"/>
<path d="M41.6001 31.543C41.6001 31.1012 41.9583 30.743 42.4001 30.743H47.2C47.6418 30.743 48 31.1012 48 31.543V36.343C48 36.7848 47.6418 37.143 47.2 37.143H42.4001C41.9583 37.143 41.6001 36.7848 41.6001 36.343V31.543Z" fill="#E1E4EA"/>
<path d="M41.6001 42.743C41.6001 42.3011 41.9583 41.943 42.4001 41.943H47.2C47.6418 41.943 48 42.3011 48 42.743V47.543C48 47.9848 47.6418 48.343 47.2 48.343H42.4001C41.9583 48.343 41.6001 47.9848 41.6001 47.543V42.743Z" fill="#E1E4EA"/>
<path d="M41.6001 53.943C41.6001 53.5011 41.9583 53.143 42.4001 53.143H47.2C47.6418 53.143 48 53.5011 48 53.943V58.743C48 59.1848 47.6418 59.543 47.2 59.543H42.4001C41.9583 59.543 41.6001 59.1848 41.6001 58.743V53.943Z" fill="#E1E4EA"/>
</g>
<defs>
<filter id="filter0_b_1177_2196" x="4.00002" y="21.2573" width="38.3994" height="70.4001" filterUnits="userSpaceOnUse" color-interpolation-filters="sRGB">
<feFlood flood-opacity="0" result="BackgroundImageFix"/>
<feGaussianBlur in="BackgroundImageFix" stdDeviation="1.99999"/>
<feComposite in2="SourceAlpha" operator="in" result="effect1_backgroundBlur_1177_2196"/>
<feBlend mode="normal" in="SourceGraphic" in2="effect1_backgroundBlur_1177_2196" result="shape"/>
</filter>
<filter id="filter1_bi_1177_2196" x="16" y="4.79999" width="46.3994" height="78.4001" filterUnits="userSpaceOnUse" color-interpolation-filters="sRGB">
<feFlood flood-opacity="0" result="BackgroundImageFix"/>
<feGaussianBlur in="BackgroundImageFix" stdDeviation="4"/>
<feComposite in2="SourceAlpha" operator="in" result="effect1_backgroundBlur_1177_2196"/>
<feBlend mode="normal" in="SourceGraphic" in2="effect1_backgroundBlur_1177_2196" result="shape"/>
<feColorMatrix in="SourceAlpha" type="matrix" values="0 0 0 0 0 0 0 0 0 0 0 0 0 0 0 0 0 0 127 0" result="hardAlpha"/>
<feOffset dy="4"/>
<feGaussianBlur stdDeviation="2"/>
<feComposite in2="hardAlpha" operator="arithmetic" k2="-1" k3="1"/>
<feColorMatrix type="matrix" values="0 0 0 0 1 0 0 0 0 1 0 0 0 0 1 0 0 0 0.25 0"/>
<feBlend mode="normal" in2="shape" result="effect2_innerShadow_1177_2196"/>
</filter>
<clipPath id="clip0_1177_2196">
<rect width="64" height="64" rx="32" fill="white"/>
</clipPath>
</defs>
</svg>
