<svg width="20" height="20" viewBox="0 0 20 20" fill="none" xmlns="http://www.w3.org/2000/svg">
<path d="M6.0625 2.875C6.48109 2.875 6.89558 2.95745 7.28231 3.11763C7.66903 3.27782 8.02042 3.51261 8.3164 3.8086C8.61239 4.10458 8.84718 4.45597 9.00737 4.8427C9.16755 5.22942 9.25 5.64391 9.25 6.0625V9.25H6.0625C5.21712 9.25 4.40637 8.91418 3.8086 8.3164C3.21083 7.71863 2.875 6.90788 2.875 6.0625C2.875 5.21712 3.21083 4.40637 3.8086 3.8086C4.40637 3.21082 5.21712 2.875 6.0625 2.875ZM7.75 7.75V6.0625C7.75 5.72874 7.65103 5.40248 7.46561 5.12498C7.28018 4.84747 7.01663 4.63118 6.70828 4.50345C6.39993 4.37573 6.06063 4.34231 5.73329 4.40742C5.40594 4.47254 5.10526 4.63326 4.86926 4.86926C4.63326 5.10526 4.47254 5.40594 4.40743 5.73328C4.34231 6.06063 4.37573 6.39993 4.50345 6.70828C4.63118 7.01663 4.84747 7.28018 5.12498 7.4656C5.40248 7.65103 5.72875 7.75 6.0625 7.75H7.75ZM6.0625 10.75H9.25V13.9375C9.25 14.5679 9.06306 15.1842 8.71281 15.7084C8.36256 16.2326 7.86474 16.6411 7.28231 16.8824C6.69987 17.1236 6.05897 17.1867 5.44065 17.0638C4.82234 16.9408 4.25438 16.6372 3.8086 16.1914C3.36282 15.7456 3.05924 15.1777 2.93625 14.5594C2.81326 13.941 2.87638 13.3001 3.11764 12.7177C3.35889 12.1353 3.76744 11.6374 4.29162 11.2872C4.8158 10.9369 5.43207 10.75 6.0625 10.75ZM6.0625 12.25C5.72875 12.25 5.40248 12.349 5.12498 12.5344C4.84747 12.7198 4.63118 12.9834 4.50345 13.2917C4.37573 13.6001 4.34231 13.9394 4.40743 14.2667C4.47254 14.5941 4.63326 14.8947 4.86926 15.1307C5.10526 15.3667 5.40594 15.5275 5.73329 15.5926C6.06063 15.6577 6.39993 15.6243 6.70828 15.4965C7.01663 15.3688 7.28018 15.1525 7.46561 14.875C7.65103 14.5975 7.75 14.2713 7.75 13.9375V12.25H6.0625ZM13.9375 2.875C14.7829 2.875 15.5936 3.21082 16.1914 3.8086C16.7892 4.40637 17.125 5.21712 17.125 6.0625C17.125 6.90788 16.7892 7.71863 16.1914 8.3164C15.5936 8.91418 14.7829 9.25 13.9375 9.25H10.75V6.0625C10.75 5.21712 11.0858 4.40637 11.6836 3.8086C12.2814 3.21082 13.0921 2.875 13.9375 2.875ZM13.9375 7.75C14.2713 7.75 14.5975 7.65103 14.875 7.4656C15.1525 7.28018 15.3688 7.01663 15.4965 6.70828C15.6243 6.39993 15.6577 6.06063 15.5926 5.73328C15.5275 5.40594 15.3667 5.10526 15.1307 4.86926C14.8947 4.63326 14.5941 4.47254 14.2667 4.40742C13.9394 4.34231 13.6001 4.37573 13.2917 4.50345C12.9834 4.63118 12.7198 4.84747 12.5344 5.12498C12.349 5.40248 12.25 5.72874 12.25 6.0625V7.75H13.9375ZM10.75 10.75H13.9375C14.5679 10.75 15.1842 10.9369 15.7084 11.2872C16.2326 11.6374 16.6411 12.1353 16.8824 12.7177C17.1236 13.3001 17.1867 13.941 17.0638 14.5594C16.9408 15.1777 16.6372 15.7456 16.1914 16.1914C15.7456 16.6372 15.1777 16.9408 14.5594 17.0638C13.941 17.1867 13.3001 17.1236 12.7177 16.8824C12.1353 16.6411 11.6374 16.2326 11.2872 15.7084C10.9369 15.1842 10.75 14.5679 10.75 13.9375V10.75ZM12.25 12.25V13.9375C12.25 14.2713 12.349 14.5975 12.5344 14.875C12.7198 15.1525 12.9834 15.3688 13.2917 15.4965C13.6001 15.6243 13.9394 15.6577 14.2667 15.5926C14.5941 15.5275 14.8947 15.3667 15.1307 15.1307C15.3667 14.8947 15.5275 14.5941 15.5926 14.2667C15.6577 13.9394 15.6243 13.6001 15.4965 13.2917C15.3688 12.9834 15.1525 12.7198 14.875 12.5344C14.5975 12.349 14.2713 12.25 13.9375 12.25H12.25Z" fill="#525866"/>
</svg>
