<svg width="20" height="20" viewBox="0 0 20 20" fill="none" xmlns="http://www.w3.org/2000/svg">
<path d="M16.75 15.9987C16.75 16.1977 16.671 16.3884 16.5303 16.5291C16.3897 16.6697 16.1989 16.7487 16 16.7487H4C3.80109 16.7487 3.61032 16.6697 3.46967 16.5291C3.32902 16.3884 3.25 16.1977 3.25 15.9987V8.11624C3.24992 8.00195 3.27596 7.88915 3.32614 7.78646C3.37631 7.68378 3.44929 7.59391 3.5395 7.52374L9.5395 2.85724C9.67116 2.75482 9.8332 2.69922 10 2.69922C10.1668 2.69922 10.3288 2.75482 10.4605 2.85724L16.4605 7.52374C16.5507 7.59391 16.6237 7.68378 16.6739 7.78646C16.724 7.88915 16.7501 8.00195 16.75 8.11624V15.9987ZM15.25 15.2487V8.48224L10 4.39924L4.75 8.48224V15.2487H15.25Z" fill="#335CFF"/>
</svg>
