<svg width="24" height="24" viewBox="0 0 24 24" fill="none" xmlns="http://www.w3.org/2000/svg">
<path d="M11.9999 20.0099L16.4549 15.5549C17.3359 14.6738 17.9359 13.5513 18.1789 12.3292C18.4219 11.1072 18.2971 9.84047 17.8203 8.68933C17.3434 7.53819 16.5359 6.55431 15.4999 5.86208C14.4639 5.16986 13.2459 4.80038 11.9999 4.80038C10.7539 4.80038 9.5359 5.16986 8.49988 5.86208C7.46386 6.55431 6.65638 7.53819 6.17953 8.68933C5.70268 9.84047 5.57788 11.1072 5.82091 12.3292C6.06395 13.5513 6.6639 14.6738 7.54491 15.5549L11.9999 20.0099ZM11.9999 22.5551L6.27231 16.8275C5.13951 15.6947 4.36807 14.2514 4.05554 12.6802C3.74301 11.109 3.90342 9.48032 4.51649 8.00024C5.12956 6.52017 6.16776 5.25512 7.4998 4.36509C8.83183 3.47505 10.3979 3 11.9999 3C13.6019 3 15.168 3.47505 16.5 4.36509C17.832 5.25512 18.8702 6.52017 19.4833 8.00024C20.0964 9.48032 20.2568 11.109 19.9443 12.6802C19.6317 14.2514 18.8603 15.6947 17.7275 16.8275L11.9999 22.5551ZM11.9999 12.8999C12.4773 12.8999 12.9351 12.7103 13.2727 12.3727C13.6103 12.0352 13.7999 11.5773 13.7999 11.0999C13.7999 10.6225 13.6103 10.1647 13.2727 9.82714C12.9351 9.48957 12.4773 9.29993 11.9999 9.29993C11.5225 9.29993 11.0647 9.48957 10.7271 9.82714C10.3895 10.1647 10.1999 10.6225 10.1999 11.0999C10.1999 11.5773 10.3895 12.0352 10.7271 12.3727C11.0647 12.7103 11.5225 12.8999 11.9999 12.8999ZM11.9999 14.6999C11.0451 14.6999 10.1295 14.3206 9.45432 13.6455C8.77919 12.9704 8.39991 12.0547 8.39991 11.0999C8.39991 10.1452 8.77919 9.22948 9.45432 8.55434C10.1295 7.87921 11.0451 7.49993 11.9999 7.49993C12.9547 7.49993 13.8704 7.87921 14.5455 8.55434C15.2206 9.22948 15.5999 10.1452 15.5999 11.0999C15.5999 12.0547 15.2206 12.9704 14.5455 13.6455C13.8704 14.3206 12.9547 14.6999 11.9999 14.6999Z" fill="#525866"/>
</svg>
