<svg width="44" height="52" viewBox="0 0 44 52" fill="none" xmlns="http://www.w3.org/2000/svg">
<g clip-path="url(#clip0_1909_29071)">
<path d="M22 51.5C20.9391 51.5 19.9217 51.0786 19.1716 50.3284C18.4214 49.5783 18 48.5609 18 47.5C18 46.4391 18.4214 45.4217 19.1716 44.6716C19.9217 43.9214 20.9391 43.5 22 43.5C23.0609 43.5 24.0783 43.9214 24.8284 44.6716C25.5786 45.4217 26 46.4391 26 47.5C26 48.5609 25.5786 49.5783 24.8284 50.3284C24.0783 51.0786 23.0609 51.5 22 51.5Z" fill="white"/>
<path fill-rule="evenodd" clip-rule="evenodd" d="M22 49.5C22.5304 49.5 23.0391 49.2893 23.4142 48.9142C23.7893 48.5391 24 48.0304 24 47.5C24 46.9696 23.7893 46.4609 23.4142 46.0858C23.0391 45.7107 22.5304 45.5 22 45.5C21.4696 45.5 20.9609 45.7107 20.5858 46.0858C20.2107 46.4609 20 46.9696 20 47.5C20 48.0304 20.2107 48.5391 20.5858 48.9142C20.9609 49.2893 21.4696 49.5 22 49.5Z" fill="#F25130"/>
<path d="M22.356 40.17C22.3514 40.259 22.3128 40.3428 22.2483 40.4042C22.1837 40.4656 22.0981 40.4999 22.009 40.5C21.9171 40.5036 21.8275 40.471 21.7593 40.4094C21.691 40.3477 21.6497 40.2618 21.644 40.17C21.532 37.935 20.259 36.532 17.826 35.96C11.018 34.12 6 27.896 6 20.5C6 11.663 13.163 4.5 22 4.5C30.837 4.5 38 11.663 38 20.5C38 27.896 32.982 34.12 26.165 35.953C23.741 36.533 22.468 37.935 22.356 40.17Z" fill="#F25130"/>
<g filter="url(#filter0_d_1909_29071)">
<path d="M22.356 40.17C22.3514 40.259 22.3128 40.3428 22.2483 40.4042C22.1837 40.4656 22.0981 40.4999 22.009 40.5C21.9171 40.5036 21.8275 40.471 21.7593 40.4094C21.691 40.3477 21.6497 40.2618 21.644 40.17C21.532 37.935 20.259 36.532 17.826 35.96C11.018 34.12 6 27.896 6 20.5C6 11.663 13.163 4.5 22 4.5C30.837 4.5 38 11.663 38 20.5C38 27.896 32.982 34.12 26.165 35.953C23.741 36.533 22.468 37.935 22.356 40.17Z" fill="#F25130"/>
</g>
<path d="M22.356 40.17C22.3514 40.259 22.3128 40.3428 22.2483 40.4042C22.1837 40.4656 22.0981 40.4999 22.009 40.5C21.9171 40.5036 21.8275 40.471 21.7593 40.4094C21.691 40.3477 21.6497 40.2618 21.644 40.17C21.532 37.935 20.259 36.532 17.826 35.96C11.018 34.12 6 27.896 6 20.5C6 11.663 13.163 4.5 22 4.5C30.837 4.5 38 11.663 38 20.5C38 27.896 32.982 34.12 26.165 35.953C23.741 36.533 22.468 37.935 22.356 40.17Z" fill="#F25130"/>
<g filter="url(#filter1_d_1909_29071)">
<path d="M22.8671 40.17C22.8624 40.259 22.8226 40.3428 22.756 40.4042C22.6895 40.4656 22.6012 40.4999 22.5093 40.5C22.4145 40.5036 22.3221 40.471 22.2517 40.4094C22.1814 40.3477 22.1387 40.2618 22.1329 40.17C22.0174 37.935 20.7046 36.532 18.1956 35.96C11.1748 34.12 6 27.896 6 20.5C6 11.663 13.3868 4.5 22.5 4.5C31.6132 4.5 39 11.663 39 20.5C39 27.896 33.8252 34.12 26.7952 35.953C24.2954 36.533 22.9826 37.935 22.8671 40.17Z" fill="#F25130"/>
</g>
<path d="M22.5 27C21.6464 27 20.8012 26.8319 20.0126 26.5052C19.2239 26.1786 18.5074 25.6998 17.9038 25.0962C17.3002 24.4926 16.8214 23.7761 16.4948 22.9874C16.1681 22.1988 16 21.3536 16 20.5C16 19.6464 16.1681 18.8012 16.4948 18.0126C16.8214 17.2239 17.3002 16.5074 17.9038 15.9038C18.5074 15.3002 19.2239 14.8214 20.0126 14.4948C20.8012 14.1681 21.6464 14 22.5 14C24.2239 14 25.8772 14.6848 27.0962 15.9038C28.3152 17.1228 29 18.7761 29 20.5C29 22.2239 28.3152 23.8772 27.0962 25.0962C25.8772 26.3152 24.2239 27 22.5 27Z" fill="white"/>
</g>
<defs>
<filter id="filter0_d_1909_29071" x="0" y="0.5" width="44" height="48" filterUnits="userSpaceOnUse" color-interpolation-filters="sRGB">
<feFlood flood-opacity="0" result="BackgroundImageFix"/>
<feColorMatrix in="SourceAlpha" type="matrix" values="0 0 0 0 0 0 0 0 0 0 0 0 0 0 0 0 0 0 127 0" result="hardAlpha"/>
<feOffset dy="2"/>
<feGaussianBlur stdDeviation="3"/>
<feColorMatrix type="matrix" values="0 0 0 0 1 0 0 0 0 0.266667 0 0 0 0 0.2 0 0 0 0.5 0"/>
<feBlend mode="normal" in2="BackgroundImageFix" result="effect1_dropShadow_1909_29071"/>
<feBlend mode="normal" in="SourceGraphic" in2="effect1_dropShadow_1909_29071" result="shape"/>
</filter>
<filter id="filter1_d_1909_29071" x="0" y="0.5" width="45" height="48" filterUnits="userSpaceOnUse" color-interpolation-filters="sRGB">
<feFlood flood-opacity="0" result="BackgroundImageFix"/>
<feColorMatrix in="SourceAlpha" type="matrix" values="0 0 0 0 0 0 0 0 0 0 0 0 0 0 0 0 0 0 127 0" result="hardAlpha"/>
<feOffset dy="2"/>
<feGaussianBlur stdDeviation="3"/>
<feColorMatrix type="matrix" values="0 0 0 0 0.2 0 0 0 0 0.2 0 0 0 0 0.2 0 0 0 0.4 0"/>
<feBlend mode="normal" in2="BackgroundImageFix" result="effect1_dropShadow_1909_29071"/>
<feBlend mode="normal" in="SourceGraphic" in2="effect1_dropShadow_1909_29071" result="shape"/>
</filter>
<clipPath id="clip0_1909_29071">
<rect width="44" height="51" fill="white" transform="translate(0 0.5)"/>
</clipPath>
</defs>
</svg>
