<svg width="20" height="20" viewBox="0 0 20 20" fill="none" xmlns="http://www.w3.org/2000/svg">
<path d="M4.75 9.25H10.75V10.75H4.75V13L1 10L4.75 7V9.25ZM4 14.5H6.031C6.89701 15.2638 7.96501 15.7614 9.10684 15.9332C10.2487 16.105 11.4158 15.9437 12.4683 15.4686C13.5207 14.9935 14.4137 14.2249 15.0401 13.2549C15.6664 12.2848 15.9996 11.1547 15.9996 10C15.9996 8.84532 15.6664 7.71516 15.0401 6.74514C14.4137 5.77512 13.5207 5.00646 12.4683 4.53138C11.4158 4.05629 10.2487 3.89498 9.10684 4.0668C7.96501 4.23861 6.89701 4.73625 6.031 5.5H4C4.698 4.56788 5.60375 3.81139 6.6453 3.29061C7.68686 2.76983 8.83551 2.49913 10 2.5C14.1423 2.5 17.5 5.85775 17.5 10C17.5 14.1423 14.1423 17.5 10 17.5C8.83551 17.5009 7.68686 17.2302 6.6453 16.7094C5.60375 16.1886 4.698 15.4321 4 14.5Z" fill="#FB3748"/>
</svg>
