<svg width="25" height="24" viewBox="0 0 25 24" fill="none" xmlns="http://www.w3.org/2000/svg">
<path d="M12.5 21C7.5293 21 3.5 16.9707 3.5 12C3.5 7.0293 7.5293 3 12.5 3C17.4707 3 21.5 7.0293 21.5 12C21.5 16.9707 17.4707 21 12.5 21ZM12.5 19.2C14.4096 19.2 16.2409 18.4414 17.5912 17.0912C18.9414 15.7409 19.7 13.9096 19.7 12C19.7 10.0904 18.9414 8.25909 17.5912 6.90883C16.2409 5.55857 14.4096 4.8 12.5 4.8C10.5904 4.8 8.75909 5.55857 7.40883 6.90883C6.05857 8.25909 5.3 10.0904 5.3 12C5.3 13.9096 6.05857 15.7409 7.40883 17.0912C8.75909 18.4414 10.5904 19.2 12.5 19.2ZM11.2598 8.7735L15.6509 11.7003C15.7003 11.7332 15.7408 11.7777 15.7688 11.83C15.7968 11.8823 15.8115 11.9407 15.8115 12C15.8115 12.0593 15.7968 12.1177 15.7688 12.17C15.7408 12.2223 15.7003 12.2668 15.6509 12.2997L11.2589 15.2265C11.2047 15.2624 11.1419 15.283 11.077 15.286C11.0121 15.2891 10.9476 15.2745 10.8903 15.2439C10.833 15.2133 10.785 15.1677 10.7515 15.112C10.718 15.0564 10.7002 14.9927 10.7 14.9277V9.0723C10.7001 9.00719 10.7179 8.94332 10.7514 8.88751C10.785 8.8317 10.833 8.78604 10.8905 8.75537C10.9479 8.72471 11.0126 8.71021 11.0776 8.7134C11.1427 8.71659 11.2056 8.73736 11.2598 8.7735Z" fill="#0E121B"/>
</svg>
