<svg width="20" height="20" viewBox="0 0 20 20" fill="none" xmlns="http://www.w3.org/2000/svg">
<path d="M16 17.5H4C3.80109 17.5 3.61032 17.421 3.46967 17.2803C3.32902 17.1397 3.25 16.9489 3.25 16.75V3.25C3.25 3.05109 3.32902 2.86032 3.46967 2.71967C3.61032 2.57902 3.80109 2.5 4 2.5H16C16.1989 2.5 16.3897 2.57902 16.5303 2.71967C16.671 2.86032 16.75 3.05109 16.75 3.25V16.75C16.75 16.9489 16.671 17.1397 16.5303 17.2803C16.3897 17.421 16.1989 17.5 16 17.5ZM15.25 16V4H4.75V16H15.25ZM7.75 5.5V7C7.75 7.59674 7.98705 8.16903 8.40901 8.59099C8.83097 9.01295 9.40326 9.25 10 9.25C10.5967 9.25 11.169 9.01295 11.591 8.59099C12.0129 8.16903 12.25 7.59674 12.25 7V5.5H13.75V7C13.75 7.99456 13.3549 8.94839 12.6517 9.65165C11.9484 10.3549 10.9946 10.75 10 10.75C9.00544 10.75 8.05161 10.3549 7.34835 9.65165C6.64509 8.94839 6.25 7.99456 6.25 7V5.5H7.75Z" fill="#525866"/>
</svg>
