<svg width="20" height="20" viewBox="0 0 20 20" fill="none" xmlns="http://www.w3.org/2000/svg">
<path d="M10 13.75C12.7465 13.75 15.1488 14.9312 16.4553 16.6937L15.0738 17.347C14.0103 16.087 12.1353 15.25 10 15.25C7.86478 15.25 5.98978 16.087 4.92628 17.347L3.54553 16.693C4.85203 14.9305 7.25353 13.75 10 13.75ZM10 2.5C10.9946 2.5 11.9484 2.89509 12.6517 3.59835C13.3549 4.30161 13.75 5.25544 13.75 6.25V8.5C13.75 9.46635 13.3769 10.3954 12.7085 11.0933C12.0402 11.7913 11.1282 12.2043 10.1628 12.2463L10 12.25C9.00547 12.25 8.05164 11.8549 7.34838 11.1517C6.64512 10.4484 6.25003 9.49456 6.25003 8.5V6.25C6.25009 5.28365 6.62319 4.35463 7.29153 3.65667C7.95987 2.95871 8.87184 2.54569 9.83728 2.50375L10 2.5ZM10 4C9.42612 3.99997 8.8739 4.21924 8.45634 4.61296C8.03878 5.00668 7.78745 5.54508 7.75378 6.118L7.75003 6.25V8.5C7.74947 9.08568 7.9773 9.6485 8.38511 10.0689C8.79292 10.4892 9.34858 10.734 9.934 10.7512C10.5194 10.7684 11.0885 10.5566 11.5203 10.1609C11.952 9.76519 12.2125 9.2167 12.2463 8.632L12.25 8.5V6.25C12.25 5.65326 12.013 5.08097 11.591 4.65901C11.1691 4.23705 10.5968 4 10 4Z" fill="#99A0AE"/>
</svg>
